{"title":"Pussycat Dolls - Live in London.mkv","uid":9441728,"size":1100316317,"categoryP":"video","categoryS":"music_videos","magnet":"?xt=urn:btih:6ec1c9d6937930e17667d1358c6778769ac972f6&amp;dn=Pussycat+Dolls+-+Live+in+London.mkv&amp;tr=udp%3A%2F%2Ftracker.openbittorrent.com%3A80&amp;tr=udp%3A%2F%2Fopen.demonii.com%3A1337&amp;tr=udp%3A%2F%2Ftracker.coppersurfer.tk%3A6969&amp;tr=udp%3A%2F%2Fexodus.desync.com%3A6969","seeders":2,"leechers":0,"uploader":"SkyKiller","files":1,"time":1389022205,"description":" &lt;a href=&quot;http://bayimg.com/DaGNjAafb&quot; rel=&quot;nofollow&quot; target=&quot;_NEW&quot;&gt;http://bayimg.com/DaGNjAafb&lt;/a&gt;\n\n\nTrack Listing:\n\nBUTTONS\nBEEP\nI DON'T NEED A MAN\nFEELING GOOD\nSTICKWITU\nWAIT A MINUTE\nDON'T CHA\n\nGeneral\nComplete name                  : D:DownloadsPussycat Dolls - Live in London.mkv\nFormat                         : Matroska\nFormat version                 : Version 1\nFile size                      : 1.02 GiB\nDuration                       : 28mn 3s\nOverall bit rate               : 5 228 Kbps\nEncoded date                   : UTC 2014-01-05 11:55:02\n\nVideo\nID                             : 1\nFormat                         : AVC\nFormat/Info                    : Advanced Video Codec\nFormat profile                 : &lt;a class=&quot;__cf_email__&quot; href=&quot;/cdn-cgi/l/email-protection&quot; data-cfemail=&quot;490b283a2c2520272c09057a6779&quot;&gt;[email&amp;#160;protected]&lt;/a&gt;&lt;script cf-hash='f9e31' type=&quot;text/javascript&quot;&gt;\n/* &lt;![CDATA[ */!function(){try{var t=&quot;currentScript&quot;in document?document.currentScript:function(){for(var t=document.getElementsByTagName(&quot;script&quot;),e=t.length;e--;)if(t[e].getAttribute(&quot;cf-hash&quot;))return t[e]}();if(t&amp;&amp;t.previousSibling){var e,r,n,i,c=t.previousSibling,a=c.getAttribute(&quot;data-cfemail&quot;);if(a){for(e=&quot;&quot;,r=parseInt(a.substr(0,2),16),n=2;a.length-n;n+=2)i=parseInt(a.substr(n,2),16)^r,e+=String.fromCharCode(i);e=document.createTextNode(e),c.parentNode.replaceChild(e,c)}}}catch(u){}}();/* ]]&gt; */&lt;/script&gt;\nFormat settings, CABAC         : No\nFormat settings, ReFrames      : 1 frame\nFormat settings, GOP           : M=1, N=25\nCodec ID                       : V_MPEG4/ISO/AVC\nDuration                       : 28mn 3s\nBit rate                       : 4 932 Kbps\nWidth                          : 720 pixels\nHeight                         : 480 pixels\nDisplay aspect ratio           : 3:2\nFrame rate mode                : Constant\nFrame rate                     : 30.000 fps\nStandard                       : NTSC\nColor space                    : YUV\nChroma subsampling             : 4:2:0\nBit depth                      : 8 bits\nScan type                      : Progressive\nBits/(Pixel*Frame)             : 0.476\nStream size                    : 990 MiB (94%)\nDefault                        : Yes\nForced                         : No\n\nAudio\nID                             : 2\nFormat                         : AC-3\nFormat/Info                    : Audio Coding 3\nMode extension                 : CM (complete main)\nFormat settings, Endianness    : Big\nCodec ID                       : A_AC3\nDuration                       : 28mn 3s\nBit rate mode                  : Constant\nBit rate                       : 192 Kbps\nChannel(s)                     : 2 channels\nChannel positions              : Front: L R\nSampling rate                  : 48.0 KHz\nBit depth                      : 16 bits\nCompression mode               : Lossy\nDelay relative to video        : 21ms\nStream size                    : 38.5 MiB (4%)\nDefault                        : Yes\nForced                         : No\n\n","torrent":{"xt":"urn:btih:6ec1c9d6937930e17667d1358c6778769ac972f6","amp;dn":"Pussycat+Dolls+-+Live+in+London.mkv","amp;tr":["udp%3A%2F%2Ftracker.openbittorrent.com%3A80","udp%3A%2F%2Fopen.demonii.com%3A1337","udp%3A%2F%2Ftracker.coppersurfer.tk%3A6969","udp%3A%2F%2Fexodus.desync.com%3A6969"],"infoHash":"6ec1c9d6937930e17667d1358c6778769ac972f6","infoHashBuffer":{"type":"Buffer","data":[110,193,201,214,147,121,48,225,118,103,209,53,140,103,120,118,154,201,114,246]},"announce":[],"urlList":[]}}